<?xml version="1.0" standalone="no"?>
<!DOCTYPE svg PUBLIC "-//W3C//DTD SVG 20010904//EN"
 "http://www.w3.org/TR/2001/REC-SVG-20010904/DTD/svg10.dtd">
<svg version="1.0" xmlns="http://www.w3.org/2000/svg"
 width="700.000000pt" height="700.000000pt" viewBox="0 0 700.000000 700.000000"
 preserveAspectRatio="xMidYMid meet">
<metadata>
Created by potrace 1.14, written by Peter Selinger 2001-2017
</metadata>
<g transform="translate(0.000000,700.000000) scale(0.100000,-0.100000)"
fill="#000000" stroke="none">
<path d="M1380 6643 c-69 -11 -173 -37 -240 -60 -424 -145 -730 -529 -778
-977 -8 -80 -7 -4165 1 -4233 54 -430 351 -806 749 -953 114 -41 190 -58 308
-68 41 -4 1000 -7 2130 -6 2230 1 2115 -2 2287 53 275 88 517 286 664 545 58
101 102 223 136 376 4 19 8 991 9 2160 3 2075 2 2127 -17 2220 -11 52 -29 122
-40 155 -133 382 -460 679 -834 760 -44 9 -98 21 -120 26 -38 8 -4203 11
-4255 2z"/>
</g>
</svg>
