<?xml version="1.0" encoding="utf-8"?>
<!-- Generator: Adobe Illustrator 27.2.0, SVG Export Plug-In . SVG Version: 6.00 Build 0)  -->
<svg version="1.1" id="_Logo_Square" xmlns="http://www.w3.org/2000/svg" xmlns:xlink="http://www.w3.org/1999/xlink" x="0px"
	 y="0px" viewBox="0 0 1000 1000" style="enable-background:new 0 0 1000 1000;" xml:space="preserve">
<style type="text/css">
	.st0{fill:url(#SVGID_1_);}
	.st1{fill:#FCE77D;}
</style>
<g>
	<linearGradient id="SVGID_1_" gradientUnits="userSpaceOnUse" x1="136.9821" y1="-360.6661" x2="804.0139" y2="1219.8378">
		<stop  offset="4.882812e-03" style="stop-color:#4DB5F4"/>
		<stop  offset="1" style="stop-color:#0050F4"/>
	</linearGradient>
	<path class="st0" d="M950,216.75v567.23c0,59.69-31.38,112.04-78.55,141.47c-25.55,15.94-55.74,25.15-88.07,25.15H217.36
		c-92.02,0-166.62-74.6-166.62-166.62V216.75c0-80.75,57.44-148.08,133.68-163.37c10.65-2.14,21.66-3.26,32.94-3.26h566.02
		C875.4,50.12,950,124.72,950,216.75z"/>
	<g>
		<path class="st1" d="M354.86,662.79l-58.14-0.01c-0.85-0.05-84.87-5.82-84.87-101.18V53.26h14.1V561.6
			c0,80.56,66.56,86.75,71.39,87.09h57.52V662.79z"/>
	</g>
	<g>
		<path class="st1" d="M354.22,630.33h-31.14c-23.15,0-41.66-5.17-55.02-15.38c-11.94-9.12-24.62-29.57-24.62-49.52V53.26h14.1
			v512.17c0,14.66,9.9,31.3,19.08,38.31c10.85,8.28,26.48,12.48,46.46,12.48h31.14V630.33z"/>
	</g>
	<g>
		<path class="st1" d="M324.97,594.52c-31.83,0-43.73-24.7-45.6-37.76l-0.07-1V54.12h14.1v501.04c0.3,1.52,1.65,7.31,5.57,12.9
			c5.75,8.2,14.46,12.36,25.88,12.36l28.58-0.48l0.24,14.1L324.97,594.52z"/>
	</g>
	<g>
		<polygon class="st1" points="413.54,662.91 399.43,662.91 399.43,482.47 375.16,458.2 292.48,458.2 292.48,444.1 381,444.1 
			413.54,476.63 		"/>
	</g>
	<g>
		<polygon class="st1" points="438.18,663.03 438,467.07 399.64,429.08 290.94,429.08 290.94,414.98 405.44,414.98 452.09,461.19 
			452.28,663.02 		"/>
	</g>
	<g>
		<polygon class="st1" points="490.7,663.45 476.6,663.45 476.6,485.93 521.44,441.09 554.93,441.09 597.08,483.24 597.08,662.72 
			582.98,662.72 582.98,489.08 549.09,455.19 527.28,455.19 490.7,491.77 		"/>
	</g>
	<g>
		<polygon class="st1" points="855.15,929.73 841.05,929.73 841.05,440.69 792.57,392.21 715.46,392.21 654.36,453.31 600.55,399.5 
			531.5,399.5 485.19,445.82 438.49,399.12 290.85,399.12 290.85,385.02 444.33,385.02 485.19,425.88 525.66,385.4 606.39,385.4 
			654.36,433.37 709.62,378.11 798.41,378.11 855.15,434.85 		"/>
	</g>
	<g>
		<polygon class="st1" points="777.21,920.87 763.11,920.87 763.11,502.49 728.65,468.04 702.23,468.04 673.15,497.12 
			673.15,662.92 659.05,662.92 659.05,491.27 696.39,453.93 734.49,453.93 777.21,496.65 		"/>
	</g>
	<g>
		<polygon class="st1" points="637.07,662.59 622.97,662.59 622.97,481.63 541.62,400.28 551.59,390.31 637.07,475.79 		"/>
	</g>
	<g>
		<polygon class="st1" points="815.27,926.92 801.17,926.92 801.17,465.31 731.61,392.12 741.84,382.41 815.27,459.68 		"/>
	</g>
	<g>
		<rect x="51.46" y="384.78" class="st1" width="162.69" height="14.1"/>
	</g>
	<g>
		<rect x="50" y="413.14" class="st1" width="164.15" height="14.1"/>
	</g>
	<g>
		<rect x="50.73" y="440.57" class="st1" width="167.41" height="14.1"/>
	</g>
	<g>
		<path class="st1" d="M317.94,50.12c-0.02,36.87-29.92,66.76-66.8,66.76c-35.78,0-65-28.14-66.72-63.5
			c10.65-2.14,21.66-3.26,32.94-3.26H317.94z"/>
	</g>
	<g>
		<path class="st1" d="M871.45,925.45c-25.55,15.94-55.74,25.15-88.07,25.15h-40.2c0.5-36.46,30.19-65.86,66.77-65.86
			C837.59,884.74,861.3,901.52,871.45,925.45z"/>
	</g>
</g>
</svg>
